<svg width="20" height="20" viewBox="0 0 20 20" fill="none" xmlns="http://www.w3.org/2000/svg">
<path d="M9.375 15.8327C9.375 15.6669 9.44085 15.508 9.55806 15.3907C9.67527 15.2735 9.83424 15.2077 10 15.2077H15C15.0553 15.2077 15.1082 15.1857 15.1473 15.1467C15.1864 15.1076 15.2083 15.0546 15.2083 14.9993V4.99935C15.2083 4.9441 15.1864 4.89111 15.1473 4.85203C15.1082 4.81296 15.0553 4.79102 15 4.79102H10C9.83424 4.79102 9.67527 4.72517 9.55806 4.60796C9.44085 4.49075 9.375 4.33178 9.375 4.16602C9.375 4.00026 9.44085 3.84128 9.55806 3.72407C9.67527 3.60686 9.83424 3.54102 10 3.54102H15C15.805 3.54102 16.4583 4.19435 16.4583 4.99935V14.9993C16.4583 15.3861 16.3047 15.7571 16.0312 16.0305C15.7577 16.304 15.3868 16.4577 15 16.4577H10C9.83424 16.4577 9.67527 16.3918 9.55806 16.2746C9.44085 16.1574 9.375 15.9984 9.375 15.8327Z" fill="#353538"/>
<path d="M13.01 10.9298C13.01 11.1508 12.9222 11.3628 12.7659 11.5191C12.6096 11.6754 12.3976 11.7632 12.1766 11.7632H8.12995C8.11079 12.0598 8.08662 12.3548 8.05829 12.6515L8.03329 12.9057C8.02398 13.0015 7.9917 13.0936 7.93919 13.1742C7.88668 13.2549 7.81548 13.3217 7.73165 13.369C7.64782 13.4162 7.55382 13.4426 7.45763 13.4458C7.36144 13.449 7.2659 13.4289 7.17912 13.3873C5.65577 12.6572 4.27671 11.6582 3.10829 10.4382L3.08329 10.4123C2.97602 10.3005 2.91614 10.1515 2.91614 9.9965C2.91614 9.84152 2.97602 9.69253 3.08329 9.58066L3.10829 9.55483C4.2767 8.33481 5.65576 7.33574 7.17912 6.60566C7.2659 6.56406 7.36144 6.54401 7.45763 6.54721C7.55382 6.5504 7.64782 6.57676 7.73165 6.62403C7.81548 6.6713 7.88668 6.7381 7.93919 6.81875C7.9917 6.89941 8.02398 6.99154 8.03329 7.08733L8.05829 7.3415C8.08662 7.63733 8.11079 7.93316 8.12995 8.22983H12.1766C12.3976 8.22983 12.6096 8.31763 12.7659 8.47391C12.9222 8.63019 13.01 8.84215 13.01 9.06316V10.9298Z" fill="#353538"/>
</svg>
