<svg width="20" height="20" viewBox="0 0 20 20" fill="none" xmlns="http://www.w3.org/2000/svg">
<g id="basil:arrow-up-solid">
<path id="Vector" d="M12.8916 11.2251C12.9488 11.1637 13.0178 11.1144 13.0945 11.0802C13.1712 11.0461 13.2539 11.0277 13.3379 11.0262C13.4218 11.0248 13.5051 11.0402 13.583 11.0716C13.6608 11.1031 13.7315 11.1498 13.7908 11.2092C13.8502 11.2685 13.897 11.3392 13.9284 11.4171C13.9598 11.4949 13.9753 11.5782 13.9738 11.6622C13.9723 11.7461 13.9539 11.8288 13.9198 11.9055C13.8856 11.9822 13.8364 12.0512 13.775 12.1084L10.4416 15.4417C10.3244 15.5588 10.1656 15.6245 9.99995 15.6245C9.83433 15.6245 9.67547 15.5588 9.55829 15.4417L6.22495 12.1084C6.16355 12.0512 6.1143 11.9822 6.08014 11.9055C6.04598 11.8288 6.02761 11.7461 6.02613 11.6622C6.02465 11.5782 6.04008 11.4949 6.07152 11.4171C6.10295 11.3392 6.14974 11.2685 6.20909 11.2092C6.26844 11.1498 6.33913 11.1031 6.41696 11.0716C6.49478 11.0402 6.57814 11.0248 6.66206 11.0262C6.74597 11.0277 6.82874 11.0461 6.9054 11.0802C6.98207 11.1144 7.05107 11.1637 7.10829 11.2251L9.37495 13.4917V5.41673C9.37495 5.25097 9.4408 5.092 9.55801 4.97479C9.67522 4.85758 9.83419 4.79173 9.99995 4.79173C10.1657 4.79173 10.3247 4.85758 10.4419 4.97479C10.5591 5.092 10.625 5.25097 10.625 5.41673L10.625 13.4917L12.8916 11.2251Z" fill="#4A4A4A"/>
</g>
</svg>
