<svg width="20" height="21" viewBox="0 0 20 21" fill="none" xmlns="http://www.w3.org/2000/svg">
<g id="ant-design:bold-outlined">
<path id="Vector" d="M13.6289 9.90234C14.2852 9.21875 14.6875 8.29492 14.6875 7.2793V7.08008C14.6875 4.97852 12.9668 3.27344 10.8457 3.27344H5.06641C4.77148 3.27344 4.53125 3.51367 4.53125 3.80859V17.0723C4.53125 17.3906 4.78906 17.6484 5.10742 17.6484H11.332C13.6172 17.6484 15.4688 15.8086 15.4688 13.5371V13.3223C15.4688 11.8965 14.7383 10.6406 13.6289 9.90234ZM6.40625 5.14844H10.7949C11.9102 5.14844 12.8125 6.01562 12.8125 7.08789V7.27344C12.8125 8.34375 11.9082 9.21289 10.7949 9.21289H6.40625V5.14844ZM13.5664 13.5352C13.5664 14.7637 12.5566 15.7598 11.3105 15.7598H6.40625V11.0996H11.3105C12.5566 11.0996 13.5664 12.0957 13.5664 13.3242V13.5352Z" fill="#353538"/>
</g>
</svg>
