<svg width="22" height="22" viewBox="0 0 22 22" fill="none" xmlns="http://www.w3.org/2000/svg">
<path d="M18.2444 7.87115C18.201 7.77166 18.1401 7.68071 18.0648 7.60257L12.5648 2.10257C12.4866 2.0272 12.3957 1.96636 12.2962 1.9229C12.2687 1.91007 12.2393 1.90273 12.21 1.89265C12.1333 1.86655 12.0535 1.85083 11.9726 1.8459C11.9533 1.84407 11.9359 1.83398 11.9167 1.83398H5.50001C4.48892 1.83398 3.66667 2.65623 3.66667 3.66732V18.334C3.66667 19.3451 4.48892 20.1673 5.50001 20.1673H16.5C17.5111 20.1673 18.3333 19.3451 18.3333 18.334V8.25065C18.3333 8.2314 18.3233 8.21398 18.3214 8.19382C18.3169 8.11289 18.3012 8.03298 18.2747 7.9564C18.2655 7.92707 18.2573 7.89865 18.2444 7.87115ZM15.2038 7.33398H12.8333V4.96348L15.2038 7.33398ZM5.50001 18.334V3.66732H11V8.25065C11 8.49377 11.0966 8.72692 11.2685 8.89883C11.4404 9.07074 11.6736 9.16732 11.9167 9.16732H16.5L16.5018 18.334H5.50001Z" fill="#353538"/>
<path d="M7.33333 11.0007H14.6667V12.834H7.33333V11.0007ZM7.33333 14.6673H14.6667V16.5007H7.33333V14.6673ZM7.33333 7.33398H9.16666V9.16732H7.33333V7.33398Z" fill="#353538"/>
</svg>
