<svg width="24" height="24" viewBox="0 0 24 24" fill="none" xmlns="http://www.w3.org/2000/svg">
<g id="codicon:list-ordered">
<path id="Vector" fill-rule="evenodd" clip-rule="evenodd" d="M3.4305 3.489L4.038 3H5.0535V7.5H3.9915V4.188L3.4305 4.6095V3.489ZM7.5 4.5H22.5V6H7.5V4.5ZM7.5 10.5H22.5V12H7.5V10.5ZM22.5 16.5H7.5V18H22.5V16.5ZM5.613 11.439L5.6565 11.3805L5.754 11.2455C5.9121 11.0239 5.99419 10.7571 5.988 10.485C5.988 10.305 5.958 10.125 5.9025 9.954C5.84551 9.77555 5.7498 9.6119 5.62223 9.47473C5.49465 9.33756 5.33835 9.23026 5.1645 9.1605C4.94939 9.07322 4.71856 9.03134 4.4865 9.0375C4.25078 9.03114 4.01646 9.07565 3.7995 9.168C3.63136 9.24057 3.48044 9.34783 3.35662 9.48276C3.23281 9.61769 3.13888 9.77726 3.081 9.951C3.02853 10.1072 3.00119 10.2707 3 10.4355V10.5105H4.215V10.4355C4.21574 10.3521 4.23963 10.2706 4.284 10.2C4.30596 10.1668 4.3352 10.1391 4.3695 10.119C4.40947 10.0987 4.45367 10.0881 4.4985 10.0881C4.54333 10.0881 4.58753 10.0987 4.6275 10.119C4.66179 10.1424 4.69047 10.1732 4.7115 10.209C4.73425 10.2463 4.75001 10.2875 4.758 10.3305C4.78948 10.4774 4.77045 10.6307 4.704 10.7655C4.6517 10.8613 4.59149 10.9527 4.524 11.0385L3.024 12.7455L3.006 12.765V13.575H5.988V12.525H4.638L5.613 11.439ZM5.5575 17.1645C5.6265 17.2125 5.6865 17.2695 5.7375 17.3355C5.9153 17.5725 6.00398 17.8646 5.988 18.1605C5.988 18.321 5.9625 18.48 5.913 18.6315C5.85661 18.804 5.76145 18.9613 5.63482 19.0913C5.50819 19.2213 5.35346 19.3206 5.1825 19.3815C4.95221 19.4664 4.70785 19.5066 4.4625 19.5C4.29 19.5 4.1175 19.476 3.951 19.4265C3.81335 19.3851 3.68284 19.3229 3.564 19.242C3.45859 19.1696 3.36627 19.0799 3.291 18.9765C3.22227 18.8831 3.16392 18.7825 3.117 18.6765C3.04381 18.4988 3.00414 18.3091 3 18.117V18.0435H4.221V18.117C4.221 18.1575 4.2255 18.1995 4.2345 18.24C4.24215 18.2796 4.25744 18.3173 4.2795 18.351C4.2985 18.3837 4.32596 18.4106 4.359 18.429C4.39541 18.4468 4.43505 18.457 4.47552 18.4591C4.516 18.4612 4.55647 18.455 4.5945 18.441C4.6264 18.4278 4.65506 18.4079 4.6785 18.3825C4.70669 18.3495 4.7281 18.3113 4.7415 18.27C4.75961 18.2087 4.76821 18.1449 4.767 18.081C4.77006 17.9982 4.7589 17.9155 4.734 17.8365C4.71849 17.7909 4.69226 17.7498 4.6575 17.7165C4.6315 17.6949 4.6006 17.6799 4.5675 17.673C4.5293 17.6667 4.4907 17.6632 4.452 17.6625H4.2105V16.695H4.4625C4.49762 16.6946 4.53248 16.689 4.566 16.6785C4.60193 16.6691 4.63527 16.6516 4.6635 16.6275C4.69516 16.6002 4.71984 16.5658 4.7355 16.527C4.75902 16.4695 4.76977 16.4076 4.767 16.3455C4.76818 16.2945 4.76005 16.2436 4.743 16.1955C4.73088 16.1617 4.7116 16.131 4.68649 16.1053C4.66138 16.0797 4.63102 16.0598 4.5975 16.047C4.55979 16.033 4.51963 16.0267 4.47943 16.0285C4.43923 16.0303 4.39981 16.0401 4.3635 16.0575C4.33013 16.0771 4.30186 16.1044 4.281 16.137C4.24277 16.2092 4.2222 16.2894 4.221 16.371V16.4445H3V16.371C3.00733 16.0783 3.10129 15.7943 3.27 15.555C3.34381 15.4481 3.43449 15.3539 3.5385 15.276C3.65724 15.1877 3.79014 15.1202 3.9315 15.0765C4.1025 15.0225 4.2825 14.997 4.4625 15C4.6365 14.9985 4.809 15.015 4.9785 15.054C5.1165 15.0855 5.2485 15.1365 5.373 15.204C5.57776 15.3105 5.7452 15.4769 5.853 15.681C5.94056 15.8406 5.98696 16.0195 5.988 16.2015C6.00014 16.4867 5.91146 16.7671 5.7375 16.9935C5.68627 17.0591 5.62561 17.1167 5.5575 17.1645Z" fill="#353538"/>
</g>
</svg>
