<svg width="26" height="26" viewBox="0 0 26 26" fill="none" xmlns="http://www.w3.org/2000/svg">
<g id="clarity:collapse-card-line" clip-path="url(#clip0_5215_5887)">
<path id="Vector" d="M23.8332 15.167H2.16656C1.97501 15.167 1.79131 15.2431 1.65587 15.3785C1.52043 15.514 1.44434 15.6977 1.44434 15.8892V20.2225C1.44434 20.4141 1.52043 20.5978 1.65587 20.7332C1.79131 20.8687 1.97501 20.9448 2.16656 20.9448H23.8332C24.0248 20.9448 24.2085 20.8687 24.3439 20.7332C24.4794 20.5978 24.5554 20.4141 24.5554 20.2225V15.8892C24.5554 15.6977 24.4794 15.514 24.3439 15.3785C24.2085 15.2431 24.0248 15.167 23.8332 15.167ZM23.111 19.5003H2.88878V16.6114H23.111V19.5003Z" fill="#353538"/>
<path id="Vector_2" d="M12.9999 14.6029L17.0805 10.5223C17.189 10.4128 17.2498 10.2649 17.2498 10.1107C17.2498 9.95649 17.189 9.80855 17.0805 9.69901C16.9722 9.59095 16.8254 9.53027 16.6724 9.53027C16.5194 9.53027 16.3727 9.59095 16.2644 9.69901L12.9999 12.9996L9.73547 9.73512C9.62716 9.62707 9.48041 9.56638 9.32742 9.56638C9.17442 9.56638 9.02768 9.62707 8.91936 9.73512C8.81087 9.84466 8.75 9.99261 8.75 10.1468C8.75 10.301 8.81087 10.4489 8.91936 10.5585L12.9999 14.6029Z" fill="#353538"/>
<path id="Vector_3" d="M12.9999 10.2699L17.0805 6.18933C17.189 6.07979 17.2498 5.93184 17.2498 5.77766C17.2498 5.62349 17.189 5.47554 17.0805 5.366C16.9722 5.25795 16.8254 5.19727 16.6724 5.19727C16.5194 5.19727 16.3727 5.25795 16.2644 5.366L12.9999 8.66655L9.73547 5.366C9.62716 5.25795 9.48041 5.19727 9.32742 5.19727C9.17442 5.19727 9.02768 5.25795 8.91936 5.366C8.81087 5.47554 8.75 5.62349 8.75 5.77766C8.75 5.93184 8.81087 6.07979 8.91936 6.18933L12.9999 10.2699Z" fill="#353538"/>
</g>
<defs>
<clipPath id="clip0_5215_5887">
<rect width="26" height="26" fill="white"/>
</clipPath>
</defs>
</svg>
