<svg width="26" height="26" viewBox="0 0 26 26" fill="none" xmlns="http://www.w3.org/2000/svg">
<g id="clarity:collapse-card-line" clip-path="url(#clip0_5215_5694)">
<path id="Vector" d="M2.16665 10.833L23.8333 10.833C24.0249 10.833 24.2086 10.7569 24.344 10.6215C24.4795 10.486 24.5555 10.3023 24.5555 10.1108V5.77745C24.5555 5.58591 24.4795 5.40221 24.344 5.26676C24.2086 5.13132 24.0249 5.05523 23.8333 5.05523L2.16665 5.05523C1.97511 5.05523 1.79141 5.13132 1.65596 5.26676C1.52052 5.40221 1.44443 5.58591 1.44443 5.77745V10.1108C1.44443 10.3023 1.52052 10.486 1.65596 10.6215C1.79141 10.7569 1.97511 10.833 2.16665 10.833ZM2.88887 6.49967L23.1111 6.49967V9.38856L2.88887 9.38856V6.49967Z" fill="#353538"/>
<path id="Vector_2" d="M13 11.3971L8.91947 15.4777C8.81097 15.5872 8.7501 15.7351 8.7501 15.8893C8.7501 16.0435 8.81097 16.1915 8.91947 16.301C9.02778 16.409 9.17453 16.4697 9.32752 16.4697C9.48052 16.4697 9.62726 16.409 9.73558 16.301L13 13.0004L16.2645 16.2649C16.3728 16.3729 16.5195 16.4336 16.6725 16.4336C16.8255 16.4336 16.9723 16.3729 17.0806 16.2649C17.1891 16.1553 17.2499 16.0074 17.2499 15.8532C17.2499 15.699 17.1891 15.5511 17.0806 15.4415L13 11.3971Z" fill="#353538"/>
<path id="Vector_3" d="M13 15.7301L8.91947 19.8107C8.81097 19.9202 8.7501 20.0682 8.7501 20.2223C8.7501 20.3765 8.81097 20.5245 8.91947 20.634C9.02778 20.7421 9.17453 20.8027 9.32752 20.8027C9.48052 20.8027 9.62726 20.7421 9.73558 20.634L13 17.3334L16.2645 20.634C16.3728 20.7421 16.5195 20.8027 16.6725 20.8027C16.8255 20.8027 16.9723 20.7421 17.0806 20.634C17.1891 20.5245 17.2499 20.3765 17.2499 20.2223C17.2499 20.0682 17.1891 19.9202 17.0806 19.8107L13 15.7301Z" fill="#353538"/>
</g>
<defs>
<clipPath id="clip0_5215_5694">
<rect width="26" height="26" fill="white" transform="matrix(-1 0 0 -1 26 26)"/>
</clipPath>
</defs>
</svg>
