<svg width="24" height="24" viewBox="0 0 24 24" fill="none" xmlns="http://www.w3.org/2000/svg">
<g id="dashicons:cloud-saved">
<path id="Vector" d="M17.76 10.7998C17.88 10.4398 18 10.0798 18 9.5998C18 6.9598 15.84 4.7998 13.2 4.7998C11.4 4.7998 9.72001 5.8798 9.00001 7.4398C8.64001 7.3198 8.16001 7.1998 7.80001 7.1998C6.12001 7.1998 4.80001 8.5198 4.80001 10.1998C4.80001 10.4398 4.80001 10.6798 4.92001 10.7998C2.76001 11.1598 1.20001 12.8398 1.20001 14.9998C1.20001 17.2798 3.12001 19.1998 5.40001 19.1998H17.4C19.68 19.1998 21.6 17.2798 21.6 14.9998C21.6 12.8398 19.92 11.0398 17.76 10.7998ZM10.2 17.8798L6.36001 14.0398L8.04001 12.3598L10.2 14.5198L14.76 9.9598L16.44 11.6398L10.2 17.8798Z" fill="#007D34"/>
</g>
</svg>
