<svg width="18" height="18" viewBox="0 0 18 18" fill="none" xmlns="http://www.w3.org/2000/svg">
<g id="fa:link" clip-path="url(#clip0_5215_4789)">
<path id="Vector" d="M15.75 13.1536C15.75 12.8652 15.6491 12.62 15.4471 12.418L13.1971 10.168C12.9952 9.96612 12.75 9.86516 12.4616 9.86516C12.1587 9.86516 11.8991 9.98054 11.6827 10.2113C11.7043 10.2329 11.7729 10.2997 11.8882 10.4114C12.0036 10.5232 12.0811 10.6007 12.1208 10.644C12.1605 10.6873 12.2146 10.7558 12.2831 10.8495C12.3516 10.9433 12.3985 11.0352 12.4237 11.1254C12.4489 11.2155 12.4616 11.3147 12.4616 11.4229C12.4616 11.7113 12.3606 11.9565 12.1587 12.1584C11.9567 12.3604 11.7116 12.4613 11.4231 12.4613C11.3149 12.4613 11.2158 12.4487 11.1256 12.4235C11.0355 12.3982 10.9435 12.3513 10.8498 12.2828C10.756 12.2143 10.6875 12.1602 10.6442 12.1206C10.601 12.0809 10.5235 12.0034 10.4117 11.888C10.2999 11.7726 10.2332 11.7041 10.2116 11.6825C9.97358 11.906 9.85459 12.1692 9.85459 12.4721C9.85459 12.7606 9.95555 13.0058 10.1575 13.2077L12.3858 15.4469C12.5805 15.6416 12.8257 15.739 13.1214 15.739C13.4099 15.739 13.6551 15.6452 13.857 15.4577L15.4471 13.8784C15.6491 13.6765 15.75 13.4349 15.75 13.1536ZM8.14545 5.52742C8.14545 5.23896 8.04449 4.99376 7.84257 4.79184L5.6142 2.55266C5.41228 2.35074 5.16709 2.24977 4.87862 2.24977C4.59737 2.24977 4.35218 2.34713 4.14305 2.54184L2.5529 4.12117C2.35098 4.32309 2.25002 4.56468 2.25002 4.84593C2.25002 5.13439 2.35098 5.37958 2.5529 5.58151L4.8029 7.8315C4.99761 8.02622 5.24281 8.12357 5.53848 8.12357C5.84136 8.12357 6.10098 8.01179 6.31733 7.78824C6.29569 7.7666 6.22718 7.69989 6.1118 7.58812C5.99641 7.47634 5.91889 7.39881 5.87923 7.35554C5.83956 7.31227 5.78548 7.24376 5.71697 7.15001C5.64846 7.05626 5.60158 6.96432 5.57634 6.87417C5.5511 6.78403 5.53848 6.68487 5.53848 6.5767C5.53848 6.28824 5.63944 6.04304 5.84136 5.84112C6.04329 5.6392 6.28848 5.53824 6.57694 5.53824C6.68511 5.53824 6.78427 5.55086 6.87442 5.5761C6.96456 5.60134 7.05651 5.64821 7.15026 5.71672C7.24401 5.78523 7.31252 5.83932 7.35579 5.87898C7.39906 5.91864 7.47658 5.99617 7.58836 6.11155C7.70014 6.22694 7.76685 6.29545 7.78848 6.31708C8.02646 6.09352 8.14545 5.8303 8.14545 5.52742ZM17.8269 13.1536C17.8269 14.019 17.5205 14.751 16.9075 15.3495L15.3173 16.9289C14.7188 17.5274 13.9868 17.8267 13.1214 17.8267C12.2488 17.8267 11.5132 17.5202 10.9147 16.9072L8.68632 14.668C8.08776 14.0695 7.78848 13.3375 7.78848 12.4721C7.78848 11.5851 8.10579 10.8315 8.7404 10.2113L7.78848 9.25939C7.16829 9.894 6.41829 10.2113 5.53848 10.2113C4.6731 10.2113 3.93752 9.90843 3.33175 9.30266L1.08175 7.05266C0.47598 6.44689 0.173096 5.71131 0.173096 4.84593C0.173096 3.98054 0.479586 3.24857 1.09257 2.65001L2.68271 1.07069C3.28127 0.47213 4.01324 0.172852 4.87862 0.172852C5.75122 0.172852 6.4868 0.479342 7.08535 1.09232L9.31372 3.33151C9.91228 3.93006 10.2116 4.66203 10.2116 5.52742C10.2116 6.41444 9.89425 7.16804 9.25963 7.78824L10.2116 8.74016C10.8317 8.10554 11.5817 7.78824 12.4616 7.78824C13.3269 7.78824 14.0625 8.09112 14.6683 8.69689L16.9183 10.9469C17.5241 11.5527 17.8269 12.2882 17.8269 13.1536Z" fill="#353538"/>
</g>
<defs>
<clipPath id="clip0_5215_4789">
<rect width="18" height="18" fill="white"/>
</clipPath>
</defs>
</svg>
