<svg width="20" height="21" viewBox="0 0 20 21" fill="none" xmlns="http://www.w3.org/2000/svg">
<g id="fluent:star-20-regular">
<path id="Vector" d="M9.10402 3.40001C9.18655 3.23255 9.3143 3.09153 9.47283 2.99291C9.63136 2.8943 9.81433 2.84204 10.001 2.84204C10.1877 2.84204 10.3707 2.8943 10.5292 2.99291C10.6877 3.09153 10.8155 3.23255 10.898 3.40001L12.828 7.31001L17.145 7.93801C17.3297 7.96483 17.5032 8.04281 17.6459 8.16311C17.7886 8.28342 17.8948 8.44126 17.9524 8.61877C18.0101 8.79628 18.0169 8.98638 17.9721 9.16757C17.9273 9.34876 17.8327 9.51379 17.699 9.64401L14.575 12.688L15.313 16.988C15.3445 17.1719 15.324 17.361 15.2536 17.5338C15.1833 17.7066 15.0661 17.8563 14.9151 17.966C14.7641 18.0756 14.5855 18.1409 14.3994 18.1543C14.2133 18.1677 14.0272 18.1288 13.862 18.042L10.002 16.012L6.14002 18.042C5.97482 18.1286 5.78868 18.1674 5.60264 18.1538C5.4166 18.1401 5.23807 18.0748 5.08723 17.965C4.93639 17.8553 4.81926 17.7055 4.74907 17.5327C4.67887 17.3599 4.65842 17.1709 4.69002 16.987L5.42702 12.688L2.30302 9.64401C2.16932 9.51379 2.07473 9.34876 2.02994 9.16757C1.98516 8.98638 1.99198 8.79628 2.04962 8.61877C2.10727 8.44126 2.21344 8.28342 2.35613 8.16311C2.49881 8.04281 2.67232 7.96483 2.85702 7.93801L7.17402 7.31101L9.10402 3.39901V3.40001ZM10.001 3.84201L8.07102 7.75301C7.99926 7.8984 7.89322 8.02416 7.76204 8.11945C7.63086 8.21474 7.47848 8.27671 7.31802 8.30001L3.00002 8.92801L6.12402 11.972C6.24 12.0852 6.32672 12.2249 6.37671 12.3791C6.42671 12.5333 6.43848 12.6973 6.41102 12.857L5.67402 17.157L9.53402 15.127C9.67757 15.0515 9.83733 15.0121 9.99952 15.0121C10.1617 15.0121 10.3215 15.0515 10.465 15.127L14.326 17.157L13.589 12.857C13.5616 12.6973 13.5733 12.5333 13.6233 12.3791C13.6733 12.2249 13.76 12.0852 13.876 11.972L17 8.92801L12.683 8.30001C12.5227 8.27656 12.3706 8.21452 12.2396 8.11924C12.1086 8.02395 12.0027 7.89827 11.931 7.75301L10.001 3.84201Z" fill="black"/>
</g>
</svg>
