<svg width="24" height="24" viewBox="0 0 24 24" fill="none" xmlns="http://www.w3.org/2000/svg">
<g id="fluent:tab-desktop-24-regular">
<path id="Vector" d="M5.75 3C5.02065 3 4.32118 3.28973 3.80546 3.80546C3.28973 4.32118 3 5.02065 3 5.75V18.25C3 18.9793 3.28973 19.6788 3.80546 20.1945C4.32118 20.7103 5.02065 21 5.75 21H18.25C18.9793 21 19.6788 20.7103 20.1945 20.1945C20.7103 19.6788 21 18.9793 21 18.25V5.75C21 5.02065 20.7103 4.32118 20.1945 3.80546C19.6788 3.28973 18.9793 3 18.25 3H5.75ZM11 4.5V5.75C11 6.34674 11.2371 6.91903 11.659 7.34099C12.081 7.76295 12.6533 8 13.25 8H19.5V18.25C19.5 18.94 18.94 19.5 18.25 19.5H5.75C5.06 19.5 4.5 18.94 4.5 18.25V5.75C4.5 5.06 5.06 4.5 5.75 4.5H11ZM19.5 6.5H13.25C13.0511 6.5 12.8603 6.42098 12.7197 6.28033C12.579 6.13968 12.5 5.94891 12.5 5.75V4.5H18.25C18.94 4.5 19.5 5.06 19.5 5.75V6.5Z" fill="#353538"/>
</g>
</svg>
