<svg width="24" height="24" viewBox="0 0 24 24" fill="none" xmlns="http://www.w3.org/2000/svg">
<g id="gg:redo">
<path id="Vector" d="M13.146 11.0508L12.972 9.05878L15.346 8.85078C14.5989 8.13138 13.6466 7.66211 12.621 7.50797C11.5953 7.35383 10.5471 7.52245 9.62158 7.99047C8.69603 8.45849 7.93892 9.20275 7.45514 10.1202C6.97135 11.0376 6.78482 12.0827 6.92139 13.1108C7.05797 14.139 7.51088 15.0992 8.21739 15.8585C8.92391 16.6178 9.84906 17.1386 10.8647 17.3487C11.8803 17.5589 12.9362 17.448 13.886 17.0314C14.8358 16.6149 15.6326 15.9133 16.166 15.0238L18.168 15.5238C17.5164 16.858 16.4574 17.9506 15.1441 18.6434C13.8308 19.3362 12.3312 19.5935 10.8621 19.378C9.39294 19.1625 8.03038 18.4854 6.97135 17.4446C5.91232 16.4038 5.2117 15.0532 4.97074 13.588C4.72978 12.1229 4.96097 10.619 5.6309 9.29387C6.30083 7.96873 7.37479 6.89095 8.69755 6.21631C10.0203 5.54167 11.5233 5.30514 12.9893 5.54088C14.4554 5.77663 15.8084 6.47246 16.853 7.52778L16.608 4.72478L18.6 4.55078L19.123 10.5278L13.146 11.0508Z" fill="#353538"/>
</g>
</svg>
