<svg width="23" height="22" viewBox="0 0 23 22" fill="none" xmlns="http://www.w3.org/2000/svg">
<g id="gg:search">
<path id="Vector" fill-rule="evenodd" clip-rule="evenodd" d="M15.9412 13.8294C17.0843 12.3557 17.623 10.5019 17.4478 8.64514C17.2725 6.78837 16.3965 5.06809 14.9979 3.83429C13.5993 2.60048 11.7833 1.94583 9.91913 2.00351C8.05499 2.0612 6.28285 2.82688 4.96323 4.1448C3.64245 5.46363 2.87426 7.23646 2.8152 9.10201C2.75614 10.9676 3.41065 12.7854 4.64535 14.1852C5.88006 15.5849 7.60203 16.4612 9.46037 16.6354C11.3187 16.8096 13.1735 16.2687 14.6469 15.1228L14.6863 15.1641L18.5748 19.0535C18.66 19.1386 18.7611 19.2062 18.8724 19.2523C18.9836 19.2984 19.1029 19.3221 19.2234 19.3221C19.3438 19.3221 19.4631 19.2984 19.5743 19.2523C19.6856 19.2062 19.7867 19.1386 19.8719 19.0535C19.9571 18.9683 20.0246 18.8672 20.0707 18.7559C20.1168 18.6446 20.1405 18.5254 20.1405 18.4049C20.1405 18.2845 20.1168 18.1652 20.0707 18.0539C20.0246 17.9427 19.9571 17.8416 19.8719 17.7564L15.9825 13.8679C15.9691 13.8547 15.9553 13.8418 15.9412 13.8294ZM14.0382 5.44189C14.5558 5.95107 14.9674 6.5577 15.2493 7.22676C15.5313 7.89582 15.6779 8.61409 15.6809 9.34012C15.6839 10.0662 15.543 10.7856 15.2666 11.4569C14.9901 12.1283 14.5834 12.7382 14.07 13.2516C13.5566 13.765 12.9467 14.1716 12.2753 14.4481C11.604 14.7246 10.8846 14.8654 10.1585 14.8625C9.43251 14.8595 8.71425 14.7128 8.04518 14.4309C7.37612 14.149 6.7695 13.7374 6.26031 13.2198C5.24274 12.1855 4.67508 10.791 4.68099 9.34012C4.68689 7.8892 5.26589 6.49939 6.29185 5.47343C7.31782 4.44746 8.70762 3.86847 10.1585 3.86256C11.6095 3.85665 13.0039 4.42431 14.0382 5.44189Z" fill="white"/>
</g>
</svg>
