<svg width="24" height="24" viewBox="0 0 24 24" fill="none" xmlns="http://www.w3.org/2000/svg">
<g id="gg:undo">
<path id="Vector" d="M5.33999 4.4678H7.33999V7.0248C8.42125 6.17629 9.72839 5.66487 11.0984 5.55432C12.4684 5.44377 13.8406 5.73898 15.0439 6.40314C16.2472 7.0673 17.2284 8.071 17.8651 9.2891C18.5018 10.5072 18.7658 11.8858 18.6241 13.2529C18.4825 14.62 17.9416 15.9152 17.0687 16.9769C16.1959 18.0387 15.0298 18.8199 13.7159 19.2234C12.402 19.6268 10.9984 19.6344 9.68017 19.2454C8.36193 18.8564 7.18738 18.0879 6.30299 17.0358L7.92199 15.8508C8.56388 16.5736 9.40155 17.0949 10.3336 17.3515C11.2656 17.6081 12.2521 17.589 13.1735 17.2965C14.0949 17.004 14.9117 16.4507 15.5251 15.7035C16.1385 14.9564 16.5222 14.0474 16.6297 13.0867C16.7371 12.126 16.5638 11.1547 16.1307 10.2904C15.6975 9.42621 15.0231 8.70608 14.1891 8.21723C13.3551 7.72838 12.3973 7.49178 11.4316 7.53607C10.4659 7.58036 9.53373 7.90365 8.74799 8.4668H11.339V10.4668H5.33899V4.4668L5.33999 4.4678Z" fill="#353538"/>
</g>
</svg>
