<svg width="20" height="21" viewBox="0 0 20 21" fill="none" xmlns="http://www.w3.org/2000/svg">
<g id="ant-design:italic-outlined">
<path id="Vector" d="M15.5859 3.625H7.14844C7.0625 3.625 6.99219 3.69531 6.99219 3.78125V5.03125C6.99219 5.11719 7.0625 5.1875 7.14844 5.1875H10.6875L7.64063 15.8125H4.47266C4.38672 15.8125 4.31641 15.8828 4.31641 15.9688V17.2188C4.31641 17.3047 4.38672 17.375 4.47266 17.375H12.9102C12.9961 17.375 13.0664 17.3047 13.0664 17.2188V15.9688C13.0664 15.8828 12.9961 15.8125 12.9102 15.8125H9.26562L12.3125 5.1875H15.5859C15.6719 5.1875 15.7422 5.11719 15.7422 5.03125V3.78125C15.7422 3.69531 15.6719 3.625 15.5859 3.625Z" fill="#353538"/>
</g>
</svg>
