<svg width="14" height="14" viewBox="0 0 14 14" fill="none" xmlns="http://www.w3.org/2000/svg">
<g id="la:pen-alt">
<path id="Vector" d="M8.38075 1.3125C8.04606 1.31425 7.71969 1.44375 7.47862 1.70887C7.47512 1.71237 7.48212 1.71938 7.47862 1.72244C6.9405 2.2645 6.73181 2.80306 6.54894 3.28125C6.47019 3.48819 6.39144 3.68287 6.28906 3.88281C6.18801 3.76364 6.06238 3.66773 5.92079 3.60165C5.7792 3.53557 5.625 3.5009 5.46875 3.5C5.17931 3.50206 4.9023 3.61796 4.69763 3.82263C4.49296 4.0273 4.37706 4.30431 4.375 4.59375C4.375 5.19181 4.87069 5.6875 5.46875 5.6875C5.79338 5.6875 6.07381 5.5335 6.2755 5.30469L6.30263 5.33225L2.31044 9.31044L2.1875 9.44738V11.1834L1.75 11.6349L2.36513 12.25L2.81663 11.8125H4.55263L4.68956 11.6896L11.935 4.42969L11.949 4.41612C12.1913 4.17278 12.3273 3.84338 12.3273 3.5C12.3273 3.15662 12.1913 2.82722 11.949 2.58388L11.4152 2.051C11.2955 1.92991 11.153 1.83374 10.9959 1.76804C10.8388 1.70233 10.6703 1.6684 10.5 1.66819C10.1872 1.66819 9.88313 1.78937 9.63856 2.00944L9.32444 1.70887C9.20083 1.58401 9.05382 1.48474 8.89182 1.41672C8.72983 1.34871 8.55645 1.31329 8.38075 1.3125ZM8.39475 2.1875C8.50237 2.18925 8.61831 2.23344 8.70888 2.32444L9.00987 2.625L6.33019 5.29112C6.923 4.662 7.18463 4.0775 7.36925 3.59581C7.55737 3.10362 7.67506 2.74269 8.09375 2.32444L8.12131 2.29688C8.15633 2.26004 8.19889 2.23119 8.24608 2.21232C8.29327 2.19344 8.34399 2.18497 8.39475 2.1875ZM10.5 2.52919C10.6024 2.52919 10.7034 2.56856 10.801 2.66612L11.3339 3.199C11.529 3.39412 11.529 3.60588 11.3339 3.80056L10.9375 4.18381L9.81619 3.0625L10.1583 2.72081L10.199 2.66612C10.2966 2.56856 10.3976 2.52919 10.5 2.52919ZM9.1875 3.69162L10.3088 4.8125L7 8.12131L5.87869 7L9.1875 3.69162ZM5.46875 4.375C5.59562 4.375 5.6875 4.46688 5.6875 4.59375C5.6875 4.72062 5.59562 4.8125 5.46875 4.8125C5.34188 4.8125 5.25 4.72062 5.25 4.59375C5.25 4.46688 5.34188 4.375 5.46875 4.375ZM5.25 7.62912L6.37131 8.75L4.18381 10.9375H3.0625V9.81619L5.25 7.62912Z" fill="white"/>
</g>
</svg>
