<svg width="29" height="28" viewBox="0 0 29 28" fill="none" xmlns="http://www.w3.org/2000/svg">
<g id="solar:settings-linear">
<g id="Group">
<path id="Vector" d="M14.8115 17.5C16.7445 17.5 18.3115 15.933 18.3115 14C18.3115 12.067 16.7445 10.5 14.8115 10.5C12.8785 10.5 11.3115 12.067 11.3115 14C11.3115 15.933 12.8785 17.5 14.8115 17.5Z" stroke="#353538" stroke-width="1.5"/>
<path id="Vector_2" d="M16.8707 2.51065C16.4426 2.33331 15.8989 2.33331 14.8116 2.33331C13.7242 2.33331 13.1806 2.33331 12.7524 2.51065C12.4691 2.62791 12.2117 2.79986 11.9949 3.01666C11.7781 3.23346 11.6062 3.49086 11.4889 3.77415C11.3816 4.03431 11.3384 4.33881 11.3221 4.78098C11.3148 5.10063 11.2264 5.4132 11.0652 5.68931C10.904 5.96543 10.6752 6.19604 10.4004 6.35948C10.1214 6.51586 9.80731 6.59876 9.48752 6.6004C9.16772 6.60203 8.85276 6.52234 8.57223 6.36881C8.18023 6.16115 7.89673 6.04681 7.61556 6.00948C7.00227 5.92883 6.38204 6.095 5.89123 6.47148C5.52489 6.75498 5.25189 7.22515 4.70823 8.16665C4.16456 9.10815 3.89156 9.57831 3.83206 10.0391C3.79197 10.343 3.81213 10.6518 3.89141 10.9479C3.97068 11.2439 4.1075 11.5215 4.29406 11.7646C4.46673 11.9886 4.70823 12.1765 5.08273 12.4121C5.63456 12.7586 5.98923 13.349 5.98923 14C5.98923 14.651 5.63456 15.2413 5.08273 15.5866C4.70823 15.8235 4.46556 16.0113 4.29406 16.2353C4.1075 16.4785 3.97068 16.756 3.89141 17.0521C3.81213 17.3482 3.79197 17.657 3.83206 17.9608C3.89273 18.4205 4.16456 18.8918 4.70706 19.8333C5.25189 20.7748 5.52373 21.245 5.89123 21.5285C6.1344 21.715 6.41195 21.8519 6.70802 21.9311C7.00408 22.0104 7.31287 22.0306 7.61673 21.9905C7.89673 21.9531 8.18023 21.8388 8.57223 21.6311C8.85276 21.4776 9.16772 21.3979 9.48752 21.3996C9.80731 21.4012 10.1214 21.4841 10.4004 21.6405C10.9639 21.9671 11.2987 22.568 11.3221 23.219C11.3384 23.6623 11.3804 23.9656 11.4889 24.2258C11.6062 24.5091 11.7781 24.7665 11.9949 24.9833C12.2117 25.2001 12.4691 25.372 12.7524 25.4893C13.1806 25.6666 13.7242 25.6666 14.8116 25.6666C15.8989 25.6666 16.4426 25.6666 16.8707 25.4893C17.154 25.372 17.4114 25.2001 17.6282 24.9833C17.845 24.7665 18.017 24.5091 18.1342 24.2258C18.2416 23.9656 18.2847 23.6623 18.3011 23.219C18.3244 22.568 18.6592 21.966 19.2227 21.6405C19.5017 21.4841 19.8158 21.4012 20.1356 21.3996C20.4554 21.3979 20.7704 21.4776 21.0509 21.6311C21.4429 21.8388 21.7264 21.9531 22.0064 21.9905C22.3103 22.0306 22.619 22.0104 22.9151 21.9311C23.2112 21.8519 23.4887 21.715 23.7319 21.5285C24.0994 21.2461 24.3712 20.7748 24.9149 19.8333C25.4586 18.8918 25.7316 18.4216 25.7911 17.9608C25.8312 17.657 25.811 17.3482 25.7317 17.0521C25.6524 16.756 25.5156 16.4785 25.3291 16.2353C25.1564 16.0113 24.9149 15.8235 24.5404 15.5878C24.2671 15.4217 24.0405 15.1888 23.8819 14.9111C23.7234 14.6333 23.638 14.3198 23.6339 14C23.6339 13.349 23.9886 12.7586 24.5404 12.4133C24.9149 12.1765 25.1576 11.9886 25.3291 11.7646C25.5156 11.5215 25.6524 11.2439 25.7317 10.9479C25.811 10.6518 25.8312 10.343 25.7911 10.0391C25.7304 9.57948 25.4586 9.10815 24.9161 8.16665C24.3712 7.22515 24.0994 6.75498 23.7319 6.47148C23.4887 6.28492 23.2112 6.1481 22.9151 6.06882C22.619 5.98955 22.3103 5.96939 22.0064 6.00948C21.7264 6.04681 21.4429 6.16115 21.0497 6.36881C20.7693 6.52213 20.4546 6.60171 20.135 6.60007C19.8155 6.59844 19.5015 6.51565 19.2227 6.35948C18.9479 6.19604 18.7192 5.96543 18.5579 5.68931C18.3967 5.4132 18.3083 5.10063 18.3011 4.78098C18.2847 4.33765 18.2427 4.03431 18.1342 3.77415C18.017 3.49086 17.845 3.23346 17.6282 3.01666C17.4114 2.79986 17.154 2.62791 16.8707 2.51065Z" stroke="#353538" stroke-width="1.5"/>
</g>
</g>
</svg>
