<svg width="21" height="21" viewBox="0 0 21 21" fill="none" xmlns="http://www.w3.org/2000/svg">
<g id="solar:trash-bin-trash-linear">
<g id="Group">
<path id="Vector" d="M17.7386 5.01135H2.86365M16.28 7.19885L15.8775 13.2364C15.7226 15.5586 15.6456 16.7197 14.8888 17.4276C14.1319 18.1364 12.9673 18.1364 10.6398 18.1364H9.96252C7.63502 18.1364 6.4704 18.1364 5.71352 17.4276C4.95665 16.7197 4.87877 15.5586 4.72477 13.2364L4.32227 7.19885M8.11365 9.38635L8.55115 13.7614M12.4886 9.38635L12.0511 13.7614" stroke="#353538" stroke-width="1.5" stroke-linecap="round"/>
<path id="Vector_2" d="M5.48865 5.01135H5.5849C5.93704 5.00235 6.27827 4.8873 6.56396 4.68123C6.84964 4.47515 7.0665 4.18766 7.18615 3.85635L7.2159 3.76623L7.30077 3.5116C7.3734 3.29373 7.41015 3.18523 7.45827 3.09248C7.55295 2.91082 7.68884 2.75384 7.85506 2.63412C8.02129 2.51439 8.21323 2.43523 8.41552 2.40298C8.5179 2.38635 8.63252 2.38635 8.86177 2.38635H11.7405C11.9698 2.38635 12.0844 2.38635 12.1868 2.40298C12.3891 2.43523 12.581 2.51439 12.7472 2.63412C12.9135 2.75384 13.0493 2.91082 13.144 3.09248C13.1921 3.18523 13.2289 3.29373 13.3015 3.5116L13.3864 3.76623C13.4973 4.13484 13.7266 4.45661 14.0389 4.68171C14.3511 4.9068 14.7289 5.02267 15.1136 5.01135" stroke="#353538" stroke-width="1.5"/>
</g>
</g>
</svg>
