<svg width="20" height="21" viewBox="0 0 20 21" fill="none" xmlns="http://www.w3.org/2000/svg">
<g id="ant-design:strikethrough-outlined">
<path id="Vector" d="M18.5938 9.75781H11.1309C10.9355 9.71875 10.7305 9.67969 10.5137 9.64062C10.2031 9.58398 10.0801 9.56055 9.91211 9.52734C8.91016 9.33203 8.30664 9.13672 7.82617 8.85938C7.14063 8.45898 6.80664 7.91602 6.80664 7.19727C6.80664 6.47461 7.10352 5.875 7.66602 5.45898C8.2207 5.04883 9.00977 4.83203 9.94727 4.83203C11.0176 4.83203 11.8437 5.11328 12.4043 5.66797C12.6895 5.94922 12.8984 6.29492 13.0254 6.69531C13.0508 6.77539 13.0801 6.89062 13.1094 7.04297C13.127 7.13672 13.2109 7.20313 13.3027 7.20313H14.7246C14.834 7.20313 14.9219 7.11328 14.9219 7.00586V6.98633C14.9082 6.85352 14.8965 6.75 14.8828 6.67383C14.7402 5.82422 14.3359 5.07813 13.7168 4.51953C12.8496 3.72852 11.5742 3.3125 10.0312 3.3125C8.61914 3.3125 7.34766 3.66602 6.45117 4.30664C5.95117 4.66602 5.56445 5.11133 5.30664 5.62891C5.04297 6.1582 4.91016 6.76953 4.91016 7.44336C4.91016 8.01953 5.02148 8.50781 5.24805 8.9375C5.41016 9.24414 5.63086 9.51367 5.91406 9.75781H1.40625C1.32031 9.75781 1.25 9.82812 1.25 9.91406V11.0859C1.25 11.1719 1.32031 11.2422 1.40625 11.2422H9.86719C9.9082 11.25 9.94336 11.2578 9.98242 11.2656C10.5859 11.3867 10.9492 11.4688 11.2832 11.5625C11.7324 11.6895 12.0762 11.8223 12.3613 11.9824C13.0605 12.377 13.4023 12.9434 13.4023 13.7207C13.4023 14.4102 13.0996 15.0254 12.5508 15.4551C11.9551 15.9219 11.0742 16.166 10.002 16.166C9.14844 16.166 8.42578 16 7.84961 15.6777C7.28125 15.3594 6.89063 14.9004 6.68359 14.3203C6.66797 14.2773 6.65039 14.2187 6.63086 14.1445C6.60742 14.0586 6.52734 13.998 6.44141 13.998H4.88477C4.77539 13.998 4.6875 14.0879 4.6875 14.1953V14.2148C4.69141 14.2598 4.69531 14.2969 4.69922 14.3262C4.82617 15.2793 5.29102 16.0605 6.08008 16.6465C7 17.3262 8.29492 17.6855 9.82617 17.6855C11.4707 17.6855 12.8496 17.2988 13.8145 16.5664C14.3027 16.1973 14.6777 15.7422 14.9297 15.2188C15.1836 14.6895 15.3145 14.0879 15.3145 13.4316C15.3145 12.8105 15.2012 12.291 14.9668 11.8418C14.8535 11.623 14.7109 11.4219 14.541 11.2402H18.5938C18.6797 11.2402 18.75 11.1699 18.75 11.084V9.91211C18.7495 9.87101 18.7328 9.83177 18.7036 9.80288C18.6743 9.774 18.6349 9.75781 18.5938 9.75781Z" fill="#353538"/>
</g>
</svg>
