<svg width="23" height="23" viewBox="0 0 23 23" fill="none" xmlns="http://www.w3.org/2000/svg">
<g id="ph:text-aa-fill">
<path id="Vector" d="M17.9688 14.0156C17.9688 14.5996 17.3102 15.0938 16.5312 15.0938C15.7523 15.0938 15.0938 14.5996 15.0938 14.0156C15.0938 13.4316 15.7523 12.9375 16.5312 12.9375C17.3102 12.9375 17.9688 13.4316 17.9688 14.0156ZM6.6134 12.2188H9.91785L8.26562 8.31324L6.6134 12.2188ZM20.8438 5.03125V17.9688C20.8438 18.35 20.6923 18.7156 20.4227 18.9852C20.1531 19.2548 19.7875 19.4062 19.4062 19.4062H3.59375C3.2125 19.4062 2.84687 19.2548 2.57728 18.9852C2.3077 18.7156 2.15625 18.35 2.15625 17.9688V5.03125C2.15625 4.65 2.3077 4.28437 2.57728 4.01478C2.84687 3.7452 3.2125 3.59375 3.59375 3.59375H19.4062C19.7875 3.59375 20.1531 3.7452 20.4227 4.01478C20.6923 4.28437 20.8438 4.65 20.8438 5.03125ZM12.8809 15.5322L8.92777 6.18844C8.8728 6.05825 8.78067 5.94715 8.6629 5.86903C8.54513 5.79092 8.40695 5.74926 8.26562 5.74926C8.1243 5.74926 7.98612 5.79092 7.86835 5.86903C7.75058 5.94715 7.65845 6.05825 7.60348 6.18844L3.65035 15.5322C3.57601 15.7078 3.57447 15.9058 3.64608 16.0825C3.71769 16.2592 3.85657 16.4003 4.03219 16.4746C4.2078 16.549 4.40575 16.5505 4.5825 16.4789C4.75924 16.4073 4.9003 16.2684 4.97465 16.0928L6.00516 13.6562H10.5261L11.5566 16.0928C11.6309 16.2684 11.772 16.4073 11.9488 16.4789C12.1255 16.5505 12.3234 16.549 12.4991 16.4746C12.6747 16.4003 12.8136 16.2592 12.8852 16.0825C12.9568 15.9058 12.9552 15.7078 12.8809 15.5322ZM19.4062 11.8594C19.4062 10.4722 18.1161 9.34375 16.5312 9.34375C15.8607 9.33879 15.2063 9.54916 14.6643 9.94391C14.5114 10.0578 14.4101 10.2278 14.3825 10.4164C14.355 10.605 14.4035 10.7969 14.5174 10.9497C14.6313 11.1026 14.8013 11.2039 14.9899 11.2315C15.1785 11.259 15.3703 11.2105 15.5232 11.0966C15.817 10.8867 16.1702 10.7762 16.5312 10.7812C17.3003 10.7812 17.9508 11.2628 17.9688 11.8378C17.5229 11.6135 17.0303 11.4977 16.5312 11.5C14.9464 11.5 13.6562 12.6284 13.6562 14.0156C13.6562 15.4028 14.9464 16.5312 16.5312 16.5312C17.0624 16.5337 17.5856 16.402 18.0523 16.1485C18.1274 16.2903 18.2478 16.4029 18.3942 16.4684C18.5407 16.5338 18.7049 16.5484 18.8606 16.5098C19.0163 16.4711 19.1547 16.3815 19.2535 16.2551C19.3524 16.1288 19.4062 15.9729 19.4062 15.8125V11.8594Z" fill="black"/>
</g>
</svg>
