<svg width="22" height="22" viewBox="0 0 22 22" fill="none" xmlns="http://www.w3.org/2000/svg">
<g id="twemoji:star">
<path id="Vector" d="M16.6753 20.661H16.6759C16.8243 20.6612 16.9688 20.6139 17.0884 20.5262L17.0906 20.5246C17.2105 20.4376 17.2999 20.315 17.3461 20.1743C17.3923 20.0335 17.3929 19.8818 17.3479 19.7407L17.3466 19.7366L17.3466 19.7366L15.4925 13.7526L15.3849 13.4053L15.682 13.1959L20.6041 9.72744C20.7221 9.63958 20.8097 9.51709 20.8547 9.37702C20.9002 9.23557 20.9 9.08336 20.8541 8.94203C20.8081 8.80071 20.7188 8.67746 20.5989 8.58978C20.4791 8.50229 20.3349 8.45466 20.1867 8.45362C20.1864 8.45362 20.186 8.45362 20.1857 8.45362L14.0547 8.44446L13.6928 8.44392L13.5802 8.09997L11.6714 2.26715C11.6713 2.26674 11.6711 2.26633 11.671 2.26592C11.6239 2.12558 11.534 2.00353 11.4139 1.91697C11.2934 1.83016 11.1487 1.78345 11.0002 1.78345C10.8517 1.78345 10.707 1.83016 10.5865 1.91697C10.4661 2.00373 10.3761 2.12614 10.3291 2.2669L16.6753 20.661ZM16.6753 20.661C16.5316 20.661 16.388 20.6172 16.2624 20.5277C16.2622 20.5276 16.262 20.5274 16.2618 20.5273L11.2913 16.9627L10.9999 16.7537L10.7085 16.9627L5.73711 20.5279L5.7365 20.5284C5.61607 20.615 5.47135 20.6614 5.32299 20.6609C5.17464 20.6603 5.03024 20.613 4.91042 20.5255L4.90912 20.5246C4.78914 20.4376 4.69965 20.3149 4.65338 20.1742C4.60711 20.0334 4.60642 19.8816 4.65142 19.7404L4.6526 19.7366L6.50671 13.7526L6.61432 13.4053L6.31712 13.1959L1.39543 9.72771C1.27754 9.63949 1.18997 9.51676 1.14489 9.37651C1.09941 9.23498 1.09949 9.08275 1.14513 8.94129C1.19139 8.80037 1.2807 8.67751 1.40048 8.59002L1.10556 8.18626L1.40048 8.59002C1.52014 8.50262 1.66417 8.45492 1.81233 8.45362L7.9127 8.44446L8.27265 8.44392L8.38635 8.1024L10.329 2.26715L16.6753 20.661Z" stroke="#353538"/>
</g>
</svg>
