<svg width="24" height="20" viewBox="0 0 24 20" fill="none" xmlns="http://www.w3.org/2000/svg">
<g id="uil:image">
<path id="Vector" d="M19 3.33301H5C4.20435 3.33301 3.44129 3.5964 2.87868 4.06524C2.31607 4.53408 2 5.16997 2 5.83301V14.1663C2 14.8294 2.31607 15.4653 2.87868 15.9341C3.44129 16.4029 4.20435 16.6663 5 16.6663H19C19.7956 16.6663 20.5587 16.4029 21.1213 15.9341C21.6839 15.4653 22 14.8294 22 14.1663V5.83301C22 5.16997 21.6839 4.53408 21.1213 4.06524C20.5587 3.5964 19.7956 3.33301 19 3.33301ZM5 14.9997C4.73478 14.9997 4.48043 14.9119 4.29289 14.7556C4.10536 14.5993 4 14.3874 4 14.1663V12.1497L7.3 9.40801C7.48693 9.25532 7.73825 9.16979 8 9.16979C8.26175 9.16979 8.51307 9.25532 8.7 9.40801L15.41 14.9997H5ZM20 14.1663C20 14.3874 19.8946 14.5993 19.7071 14.7556C19.5196 14.9119 19.2652 14.9997 19 14.9997H18.23L14.42 11.808L15.3 11.0747C15.4869 10.922 15.7382 10.8365 16 10.8365C16.2618 10.8365 16.5131 10.922 16.7 11.0747L20 13.8163V14.1663ZM20 11.4663L18.12 9.90801C17.5501 9.4517 16.7904 9.19686 16 9.19686C15.2096 9.19686 14.4499 9.4517 13.88 9.90801L13 10.6413L10.12 8.24134C9.55006 7.78504 8.79036 7.5302 8 7.5302C7.20964 7.5302 6.44994 7.78504 5.88 8.24134L4 9.79967V5.83301C4 5.61199 4.10536 5.40003 4.29289 5.24375C4.48043 5.08747 4.73478 4.99967 5 4.99967H19C19.2652 4.99967 19.5196 5.08747 19.7071 5.24375C19.8946 5.40003 20 5.61199 20 5.83301V11.4663Z" fill="#353538"/>
</g>
</svg>
