<svg width="20" height="21" viewBox="0 0 20 21" fill="none" xmlns="http://www.w3.org/2000/svg">
<g id="ant-design:underline-outlined">
<path id="Vector" d="M16.0938 16.2031H3.90625C3.82031 16.2031 3.75 16.2695 3.75 16.3516V17.5391C3.75 17.6211 3.82031 17.6875 3.90625 17.6875H16.0938C16.1797 17.6875 16.25 17.6211 16.25 17.5391V16.3516C16.25 16.2695 16.1797 16.2031 16.0938 16.2031ZM10 14.7188C11.3555 14.7188 12.6289 14.1895 13.5898 13.2305C14.5508 12.2715 15.0781 10.9961 15.0781 9.64062V3.54688C15.0781 3.41797 14.9727 3.3125 14.8438 3.3125H13.6719C13.543 3.3125 13.4375 3.41797 13.4375 3.54688V9.64062C13.4375 11.5352 11.8945 13.0781 10 13.0781C8.10547 13.0781 6.5625 11.5352 6.5625 9.64062V3.54688C6.5625 3.41797 6.45703 3.3125 6.32812 3.3125H5.15625C5.02734 3.3125 4.92188 3.41797 4.92188 3.54688V9.64062C4.92188 10.9961 5.45117 12.2695 6.41016 13.2305C7.36914 14.1914 8.64453 14.7188 10 14.7188Z" fill="#353538"/>
</g>
</svg>
