<svg width="22" height="21" viewBox="0 0 22 21" fill="none" xmlns="http://www.w3.org/2000/svg">
<path d="M16.6753 20.161C16.4284 20.161 16.1827 20.0852 15.9713 19.9342L10.9999 16.369L6.0285 19.9342C5.82253 20.0824 5.575 20.1617 5.32127 20.1609C5.06753 20.16 4.82056 20.079 4.61561 19.9293C4.41048 19.7806 4.25748 19.571 4.17837 19.3303C4.09926 19.0895 4.09809 18.83 4.175 18.5886L6.02911 12.6046L1.10234 9.13285C0.898152 8.98216 0.746514 8.77109 0.668869 8.52949C0.591224 8.2879 0.591504 8.028 0.669669 7.78657C0.74845 7.54573 0.90093 7.33573 1.10556 7.18626C1.31018 7.0368 1.55661 6.95542 1.81 6.95363L7.91195 6.94446L9.85467 1.10896C9.93484 0.868565 10.0886 0.659484 10.2942 0.511327C10.4998 0.363171 10.7468 0.283447 11.0002 0.283447C11.2536 0.283447 11.5006 0.363171 11.7062 0.511327C11.9118 0.659484 12.0656 0.868565 12.1457 1.10896L14.0554 6.94446L20.1886 6.95363C20.4423 6.95506 20.689 7.0364 20.8939 7.18609C21.0987 7.33578 21.2512 7.54621 21.3296 7.78749C21.408 8.02876 21.4084 8.28862 21.3307 8.53013C21.253 8.77164 21.1012 8.98254 20.8968 9.13285L15.9701 12.6046L17.8242 18.5886C17.9012 18.8299 17.9002 19.0895 17.8212 19.3302C17.7422 19.5709 17.5893 19.7806 17.3842 19.9293C17.1786 20.0801 16.9302 20.1613 16.6753 20.161Z" fill="#FFAC33"/>
</svg>
